<svg width="40" height="43" viewBox="0 0 40 43" fill="none" xmlns="http://www.w3.org/2000/svg">
<path d="M17.8 0.550113C8.60002 1.63345 1.20002 9.65011 0.200018 19.4001C-0.799982 29.5834 4.60002 38.6834 12.8 42.1501C13.4 42.3668 14 41.9334 14 41.0668V37.6001C14 37.6001 13.2 37.8168 12.2 37.8168C9.40002 37.8168 8.20002 35.2168 8.00002 33.7001C7.80002 32.8335 7.40002 32.1834 6.80002 31.5334C6.20002 31.3168 6.00002 31.3168 6.00002 31.1001C6.00002 30.6668 6.60002 30.6668 6.80002 30.6668C8.00002 30.6668 9.00002 32.1834 9.40002 32.8334C10.4 34.5668 11.6 35.0001 12.2 35.0001C13 35.0001 13.6 34.7834 14 34.5668C14.2 33.0501 14.8 31.5334 16 30.6668C11.4 29.5834 8.00002 26.7668 8.00002 22.0001C8.00002 19.6168 9.00002 17.2334 10.4 15.5001C10.2 15.0668 10 13.9834 10 12.4668C10 11.6001 10 10.5168 10.4 9.65011C10.4 9.21678 10.8 9.00011 11 9.00011H11.2C12.2 9.21678 14.2 9.86678 16 11.8168C17.2 11.3834 18.6 11.1668 20 11.1668C21.4 11.1668 22.8 11.3834 24 11.8168C25.8 9.86678 28 9.21678 29 9.00011H29.2C29.6 9.00011 29.8 9.21678 30 9.65011C30 10.5168 30 11.6001 30 12.4668C30 14.2001 29.8 15.0668 29.6 15.5001C31 17.2334 32 19.4001 32 22.0001C32 26.7668 28.6 29.5834 24 30.6668C25.2 31.7501 26 33.7001 26 35.6501V41.2834C26 41.9334 26.6 42.5834 27.4 42.3668C34.8 39.1168 40 31.3168 40 22.2168C40 9.21678 29.8 -0.966554 17.8 0.550113Z" fill="#CBA1FF"/>
</svg>
