<svg width="46" height="46" viewBox="0 0 46 46" fill="none" xmlns="http://www.w3.org/2000/svg">
<path d="M22.9667 0C10.3032 0 0 10.3032 0 22.9667C0 35.6301 10.3032 45.9333 22.9667 45.9333C35.6301 45.9333 45.9333 35.6301 45.9333 22.9667C45.9333 10.3032 35.6301 0 22.9667 0ZM17.0766 7.06667H28.8533C34.3741 7.06667 38.8667 11.5576 38.8667 17.0766V28.8533C38.8667 34.3741 34.3758 38.8667 28.8567 38.8667H17.0801C11.5592 38.8667 7.06667 34.3758 7.06667 28.8567V17.0801C7.06667 11.5592 11.5576 7.06667 17.0766 7.06667ZM17.0766 10.6C13.5062 10.6 10.6 13.5079 10.6 17.0801V28.8567C10.6 32.4271 13.5079 35.3333 17.0801 35.3333H28.8567C32.4271 35.3333 35.3333 32.4255 35.3333 28.8533V17.0766C35.3333 13.5062 32.4255 10.6 28.8533 10.6H17.0766ZM31.2134 13.5433C31.8635 13.5433 32.39 14.0698 32.39 14.7199C32.39 15.3701 31.8635 15.9 31.2134 15.9C30.5633 15.9 30.0333 15.3701 30.0333 14.7199C30.0333 14.0698 30.5633 13.5433 31.2134 13.5433ZM22.9667 14.1333C27.8374 14.1333 31.8 18.096 31.8 22.9667C31.8 27.8374 27.8374 31.8 22.9667 31.8C18.096 31.8 14.1333 27.8374 14.1333 22.9667C14.1333 18.096 18.096 14.1333 22.9667 14.1333ZM22.9667 17.6667C21.561 17.6667 20.2129 18.2251 19.219 19.219C18.2251 20.2129 17.6667 21.561 17.6667 22.9667C17.6667 24.3723 18.2251 25.7204 19.219 26.7143C20.2129 27.7083 21.561 28.2667 22.9667 28.2667C24.3723 28.2667 25.7204 27.7083 26.7143 26.7143C27.7083 25.7204 28.2667 24.3723 28.2667 22.9667C28.2667 21.561 27.7083 20.2129 26.7143 19.219C25.7204 18.2251 24.3723 17.6667 22.9667 17.6667Z" fill="#CBA1FF"/>
</svg>
